<mxfile host="app.diagrams.net" modified="2021-01-08T01:12:12.891Z" agent="5.0 (Macintosh; Intel Mac OS X 10_14_6) AppleWebKit/537.36 (KHTML, like Gecko) Chrome/87.0.4280.88 Safari/537.36" etag="gZaPYLEIFuccy7-Dh8Pb" version="14.1.8" type="github">
  <diagram id="t0nJTIF08zsp_Vx3JEVT" name="Page-1">
    <mxGraphModel dx="946" dy="547" grid="1" gridSize="10" guides="1" tooltips="1" connect="1" arrows="1" fold="1" page="1" pageScale="1" pageWidth="827" pageHeight="1169" math="0" shadow="0">
      <root>
        <mxCell id="0" />
        <mxCell id="1" parent="0" />
        <mxCell id="_YGHdt6FH9NxBT-61mlq-1" value="AWS Lambda" style="outlineConnect=0;fontColor=#232F3E;gradientColor=none;strokeColor=#ffffff;fillColor=#232F3E;dashed=0;verticalLabelPosition=middle;verticalAlign=bottom;align=center;html=1;whiteSpace=wrap;fontSize=10;fontStyle=1;spacing=3;shape=mxgraph.aws4.productIcon;prIcon=mxgraph.aws4.lambda;" vertex="1" parent="1">
          <mxGeometry x="374" y="90" width="80" height="100" as="geometry" />
        </mxCell>
        <mxCell id="_YGHdt6FH9NxBT-61mlq-3" style="edgeStyle=orthogonalEdgeStyle;rounded=0;orthogonalLoop=1;jettySize=auto;html=1;" edge="1" parent="1" source="_YGHdt6FH9NxBT-61mlq-2" target="_YGHdt6FH9NxBT-61mlq-1">
          <mxGeometry relative="1" as="geometry" />
        </mxCell>
        <mxCell id="_YGHdt6FH9NxBT-61mlq-2" value="Amazon S3" style="outlineConnect=0;fontColor=#232F3E;gradientColor=none;strokeColor=#ffffff;fillColor=#232F3E;dashed=0;verticalLabelPosition=middle;verticalAlign=bottom;align=center;html=1;whiteSpace=wrap;fontSize=10;fontStyle=1;spacing=3;shape=mxgraph.aws4.productIcon;prIcon=mxgraph.aws4.s3;" vertex="1" parent="1">
          <mxGeometry x="30" y="90" width="100" height="100" as="geometry" />
        </mxCell>
      </root>
    </mxGraphModel>
  </diagram>
</mxfile>
